<?xml version="1.0" standalone="no"?>
<!DOCTYPE svg PUBLIC "-//W3C//DTD SVG 20010904//EN"
 "http://www.w3.org/TR/2001/REC-SVG-20010904/DTD/svg10.dtd">
<svg version="1.0" xmlns="http://www.w3.org/2000/svg"
 width="1280.000000pt" height="1280.000000pt" viewBox="0 0 1280.000000 1280.000000"
 preserveAspectRatio="xMidYMid meet">

<g transform="translate(0.000000,1280.000000) scale(0.100000,-0.100000)"
fill="#000000" stroke="none">
<path d="M7590 11791 c-70 -24 -282 -136 -346 -183 -282 -207 -415 -606 -317
-953 24 -84 60 -167 108 -245 19 -32 35 -62 35 -67 0 -6 -79 -13 -197 -16
-211 -6 -326 -25 -498 -82 -96 -31 -260 -108 -338 -158 -32 -21 -60 -37 -62
-37 -3 0 -5 52 -5 116 0 282 -100 537 -280 714 -100 99 -192 155 -329 200
-113 38 -208 47 -322 31 -110 -16 -159 -31 -261 -80 -262 -125 -457 -360 -543
-657 -37 -129 -48 -229 -42 -389 5 -148 22 -215 91 -368 62 -140 213 -311 339
-386 205 -121 440 -144 689 -67 30 9 50 11 53 5 4 -5 -3 -37 -14 -72 -43 -129
-62 -248 -68 -419 -9 -259 27 -467 117 -683 24 -57 50 -141 60 -195 20 -108
54 -198 98 -262 17 -24 76 -89 131 -146 56 -57 101 -105 101 -107 0 -2 -25
-28 -56 -57 -116 -110 -267 -198 -455 -263 -131 -45 -195 -81 -389 -213 -206
-141 -295 -227 -354 -340 -56 -109 -86 -222 -86 -321 0 -65 4 -83 29 -126 16
-28 49 -69 73 -91 36 -33 58 -44 117 -57 41 -10 80 -17 87 -17 17 0 17 0 -1
-75 -17 -69 -19 -213 -5 -298 6 -38 6 -67 -1 -84 -5 -15 -21 -81 -35 -147 -33
-158 -93 -339 -149 -455 -64 -132 -62 -149 22 -229 55 -52 95 -77 219 -138 83
-41 182 -84 220 -97 l68 -22 113 -220 c62 -121 141 -275 175 -343 l63 -122
-19 -33 c-11 -17 -26 -47 -35 -65 -8 -17 -19 -32 -23 -32 -5 0 -32 13 -61 29
-28 17 -92 42 -142 57 -49 14 -119 35 -155 46 -256 76 -552 118 -736 104 -165
-12 -383 -97 -522 -203 -102 -78 -228 -251 -266 -364 -42 -127 -59 -212 -53
-272 7 -84 50 -225 98 -324 53 -110 160 -220 329 -335 147 -100 206 -132 309
-164 42 -13 118 -39 168 -59 110 -42 290 -75 410 -75 138 0 448 47 663 102
138 34 168 45 334 120 71 32 134 58 141 58 7 0 19 -17 27 -38 37 -95 252 -341
373 -427 133 -94 343 -190 566 -259 191 -58 216 -63 411 -81 178 -16 192 -16
443 16 290 37 492 100 646 200 46 30 102 67 124 81 118 75 318 306 403 466 22
43 50 115 61 163 40 164 24 278 -62 460 -103 215 -198 304 -404 379 -35 12
-63 25 -63 28 0 2 24 30 53 62 83 89 188 318 220 481 9 42 18 166 22 289 6
188 4 236 -15 380 -31 237 -38 566 -16 713 30 195 41 227 141 428 53 107 104
203 113 214 16 19 16 19 -1 6 -56 -44 -248 -391 -266 -481 -38 -190 -51 -304
-51 -441 0 -140 20 -384 41 -492 5 -27 9 -162 9 -299 0 -347 -9 -383 -146
-628 -36 -63 -81 -140 -100 -171 l-34 -55 -87 19 c-68 15 -133 19 -283 21
-180 1 -669 -18 -732 -29 -25 -4 -31 1 -54 47 -32 63 -102 139 -171 185 -58
38 -55 31 -82 163 -42 203 -72 318 -117 449 -25 75 -49 140 -54 145 -5 5 34
51 89 105 53 53 103 111 110 129 13 30 12 37 -13 89 -41 83 -88 319 -122 609
-8 76 -22 173 -30 214 -8 41 -14 81 -14 89 0 19 72 11 271 -29 146 -30 159
-31 246 -20 133 16 299 56 338 80 74 46 155 168 184 275 27 100 7 309 -54 565
-52 219 -72 324 -85 440 -13 129 -32 204 -67 276 -26 53 -101 134 -124 134
-28 0 25 38 59 43 86 11 273 122 407 239 51 45 287 318 343 396 40 56 136 251
151 307 33 117 61 264 61 314 0 31 -9 89 -19 130 -15 55 -17 78 -9 91 16 24
-6 258 -36 390 -65 286 -213 562 -414 772 -53 55 -91 102 -86 107 5 4 36 13
69 20 238 49 400 150 517 322 110 162 156 301 165 499 5 105 2 141 -16 225
-41 192 -67 263 -136 365 -127 188 -284 318 -480 398 -145 58 -205 72 -340 78
-100 4 -129 1 -175 -15z m-468 -1547 c25 -5 54 -21 85 -51 83 -76 173 -136
307 -203 l129 -65 69 -90 c55 -71 178 -267 240 -379 23 -43 59 -152 78 -236
26 -117 26 -243 0 -372 -13 -63 -17 -105 -12 -110 6 -6 45 -4 104 6 52 9 110
13 129 10 46 -9 105 -43 160 -95 58 -55 89 -143 89 -253 -1 -167 -94 -436
-208 -598 -54 -76 -268 -329 -316 -371 -104 -94 -337 -240 -354 -222 -3 3 8
19 24 36 23 24 26 32 14 39 -21 13 -35 2 -161 -127 -165 -168 -262 -221 -429
-230 -182 -11 -374 48 -595 182 -22 14 -46 25 -52 25 -21 0 -15 -30 10 -51
l22 -18 -31 -1 c-35 0 -210 50 -279 81 -26 12 -77 40 -114 64 -36 23 -88 54
-116 69 -111 60 -131 74 -220 168 -179 186 -228 363 -157 568 57 165 129 229
328 292 42 13 74 29 74 36 0 7 -17 42 -39 77 -21 35 -61 121 -88 192 -70 178
-87 283 -87 538 0 231 13 302 85 440 23 44 56 115 74 157 22 51 53 100 91 145
72 82 209 174 269 181 86 9 203 -39 290 -118 54 -50 148 -110 172 -110 12 0
23 1 23 3 1 1 7 42 14 90 33 210 187 332 378 301z m-1726 -3751 c14 -15 16
-33 11 -133 -5 -106 -9 -128 -61 -280 -93 -275 -162 -390 -236 -390 -61 0 -85
61 -77 199 9 162 31 241 104 381 37 69 80 142 96 164 55 70 126 96 163 59z
m1042 -144 c52 -55 68 -246 32 -379 -26 -95 -126 -298 -184 -371 -54 -69 -111
-99 -185 -99 -61 0 -123 29 -140 66 -19 43 -23 118 -11 219 25 216 191 505
325 566 56 26 139 25 163 -2z m691 -119 c6 -41 12 -99 14 -129 l4 -54 -74 7
c-40 4 -80 9 -88 13 -12 4 -1 33 52 135 42 82 69 125 74 116 4 -7 12 -47 18
-88z m-1118 -2150 c81 -15 87 -26 99 -165 6 -66 10 -151 8 -190 l-3 -70 -46
95 c-67 137 -149 319 -149 330 0 13 24 13 91 0z m-1515 -449 c71 -5 164 -17
205 -26 320 -75 523 -135 603 -178 58 -32 59 -33 75 -97 23 -94 48 -129 124
-180 109 -73 241 -110 447 -126 l88 -7 6 -45 c10 -77 7 -96 -23 -133 -108
-131 -177 -375 -152 -539 6 -39 12 -76 14 -81 2 -12 -172 -93 -308 -143 -160
-60 -477 -123 -724 -146 -186 -17 -368 9 -529 75 -48 20 -114 43 -147 52 -81
21 -138 51 -280 146 -77 52 -153 113 -210 172 -80 80 -96 102 -128 177 -57
134 -90 267 -82 336 24 205 140 423 291 545 108 89 316 177 464 197 76 10 115
10 266 1z m1024 -161 c23 -33 58 -72 80 -86 48 -32 199 -72 305 -80 70 -6 90
-3 158 20 43 14 82 24 87 21 4 -3 11 -20 14 -39 6 -29 2 -38 -32 -72 -34 -34
-53 -72 -86 -170 -7 -19 -272 13 -382 47 -34 11 -95 41 -137 68 -69 45 -77 54
-97 108 -27 73 -23 134 14 197 15 25 29 46 31 46 2 0 23 -27 45 -60z m1594
-175 c52 -52 96 -133 96 -176 0 -81 -123 -230 -238 -288 -147 -74 -396 -146
-470 -135 -15 2 -63 8 -107 14 -102 13 -206 62 -263 124 -36 39 -41 51 -48
112 -8 82 12 177 52 237 29 43 45 44 56 1 13 -49 64 -101 136 -136 64 -32 71
-33 177 -32 142 2 253 32 353 97 97 63 129 109 138 198 l7 69 31 -18 c17 -9
53 -39 80 -67z m1054 -146 c223 -24 423 -102 525 -206 71 -72 90 -101 155
-238 80 -171 90 -289 38 -455 -32 -102 -62 -156 -158 -285 -96 -130 -164 -198
-256 -256 -37 -23 -79 -50 -93 -60 -82 -55 -387 -180 -490 -199 -28 -5 -54
-12 -59 -15 -15 -9 -297 -46 -367 -47 -281 -8 -613 77 -950 243 -255 125 -344
200 -495 415 -56 81 -78 122 -97 184 -51 171 14 459 131 587 l20 21 39 -39
c47 -47 158 -104 241 -124 80 -19 207 -19 295 -1 93 20 303 98 366 137 120 73
227 206 227 280 0 11 10 23 23 28 13 5 151 14 307 20 156 6 286 13 288 16 9 9
210 5 310 -6z"/>
<path d="M7015 9781 c-28 -12 -52 -40 -71 -86 -25 -60 -21 -353 6 -469 11 -46
26 -128 34 -182 8 -58 31 -149 56 -219 23 -66 44 -128 47 -137 4 -14 -1 -18
-24 -18 -16 0 -63 -9 -104 -20 -104 -28 -102 -28 -94 28 7 52 -9 306 -27 422
-12 76 -83 274 -139 387 -59 118 -146 193 -225 193 -85 0 -153 -130 -161 -310
-4 -85 0 -116 42 -304 59 -266 135 -467 222 -584 l25 -34 -26 -27 c-28 -29
-34 -61 -12 -61 8 0 23 11 33 25 31 42 159 143 221 174 114 58 244 82 440 81
143 0 165 6 125 35 -15 11 -15 16 5 61 34 80 45 174 39 319 -6 149 -30 232
-119 410 -119 238 -220 347 -293 316z m86 -68 c73 -66 195 -283 249 -443 55
-161 54 -399 -2 -532 -29 -67 -48 -63 -48 10 0 135 -42 255 -110 317 -32 29
-84 25 -120 -10 -16 -16 -31 -27 -34 -24 -2 2 -17 69 -34 149 -27 126 -32 167
-33 310 -2 171 3 202 41 240 28 28 44 25 91 -17z m-537 -124 c58 -51 100 -122
158 -269 77 -192 100 -317 102 -562 1 -116 -2 -140 -16 -154 -28 -29 -45 -11
-51 56 -10 112 -109 270 -169 270 -38 0 -75 -35 -96 -92 -10 -28 -21 -47 -24
-42 -25 44 -95 358 -109 488 -14 133 12 269 61 318 43 42 85 39 144 -13z"/>
<path d="M7180 8624 c-95 -16 -143 -28 -200 -51 -194 -79 -321 -213 -322 -342
0 -78 40 -134 132 -182 41 -22 57 -24 180 -24 122 0 143 3 215 28 374 131 494
450 207 551 -44 16 -169 28 -212 20z"/>
<path d="M7942 8340 c-52 -11 -62 -17 -62 -37 0 -13 8 -14 50 -9 28 4 50 3 50
-1 0 -4 -22 -43 -48 -85 -59 -96 -136 -184 -255 -289 -51 -45 -104 -92 -119
-105 -51 -46 -212 -108 -373 -143 -172 -38 -289 -46 -457 -32 -84 7 -178 17
-208 23 -83 14 -258 66 -320 94 -67 31 -250 151 -250 165 0 6 20 19 45 30 47
21 56 35 29 46 -38 14 -184 -88 -239 -167 -29 -42 -31 -50 -10 -50 8 0 41 27
74 61 l59 61 73 -54 c41 -30 93 -66 116 -79 28 -17 63 -54 100 -106 93 -130
205 -257 367 -413 144 -139 155 -148 231 -177 44 -17 127 -38 185 -47 127 -21
167 -14 284 47 98 50 222 169 280 267 22 36 47 74 57 85 42 47 134 259 165
379 22 87 90 231 139 296 23 30 59 88 80 128 21 41 44 76 51 79 6 2 45 -7 85
-21 71 -23 100 -22 84 4 -25 40 -175 68 -263 50z m-592 -871 c74 -33 152 -121
134 -152 -45 -76 -158 -170 -269 -223 -81 -39 -148 -44 -276 -19 -124 23 -195
57 -270 128 -36 34 -73 73 -82 87 -15 24 -15 27 9 58 14 17 47 44 72 60 43 25
55 27 152 26 112 0 161 -15 204 -63 11 -12 25 -21 33 -21 15 0 18 36 3 45 -16
10 6 33 52 56 82 42 171 49 238 18z"/>
<path d="M4744 3449 c-11 -18 6 -26 111 -54 161 -43 223 -66 340 -125 182 -93
308 -192 440 -349 58 -69 85 -86 85 -56 0 15 -106 141 -178 212 -79 78 -256
196 -376 252 -68 31 -165 65 -271 94 -129 36 -143 38 -151 26z"/>
<path d="M7810 2993 c-248 -38 -507 -116 -694 -210 -246 -124 -616 -413 -616
-482 0 -32 15 -25 59 28 92 110 360 310 546 407 110 57 308 132 449 169 71 19
338 65 379 65 4 0 7 7 7 15 0 12 -12 15 -52 14 -29 -1 -64 -3 -78 -6z"/>
</g>
</svg>
